# Blender v2.71 (sub 0) OBJ File: ''
# www.blender.org
mtllib doorstand.mtl
o Plane
v -0.975853 -0.081126 0.030902
v 1.024147 -0.081126 0.030902
v -0.975853 1.918874 0.030904
v 1.024147 1.918874 0.030904
v -0.975853 0.918874 0.030903
v -0.725853 0.418873 0.422969
v 1.024147 0.918874 0.030903
v 0.024147 1.918874 0.030904
v -0.725853 1.418873 0.422970
v -0.975853 0.418874 0.030902
v -0.475853 1.668873 0.422970
v 1.024147 1.418874 0.030903
v -0.475853 1.918874 0.030904
v -0.975853 1.418874 0.030903
v 0.774147 1.418873 0.422970
v 1.024147 0.418874 0.030902
v 0.524147 1.918874 0.030904
v 0.524147 1.668873 0.422970
v 0.774147 0.918873 0.422970
v 0.274147 1.918873 0.422971
v -0.975853 1.918873 0.422971
v 1.024147 -0.081127 0.422969
v 1.024147 0.668873 0.422970
v -0.975853 1.168873 0.422970
v -0.225853 1.918873 0.422971
v -0.975853 0.168874 0.030902
v 0.774147 -0.081126 0.030902
v 1.024147 1.668874 0.030903
v -0.725853 1.918874 0.030904
v -0.975853 1.668874 0.030903
v -0.725853 -0.081126 0.030902
v 1.024147 0.168874 0.030902
v 0.774147 1.918874 0.030904
v 0.024147 1.668874 0.030903
v 1.024147 1.168873 0.422970
v -0.725853 0.918874 0.030903
v -0.975853 0.668873 0.422970
v -0.975853 0.668874 0.030903
v -0.725853 0.918873 0.422970
v 1.024147 1.168874 0.030903
v -0.225853 1.918874 0.030904
v -0.975853 1.168874 0.030903
v 0.024147 1.668873 0.422970
v 1.024147 0.668874 0.030903
v 0.274147 1.918874 0.030904
v 0.774147 1.918873 0.422971
v 1.024147 0.168873 0.422969
v -0.725853 -0.081127 0.422969
v 0.774147 0.918874 0.030903
v 0.524147 1.668874 0.030903
v -0.975853 -0.081127 0.422969
v -0.975853 1.668873 0.422970
v 0.774147 1.418874 0.030903
v -0.475853 1.668874 0.030903
v -0.725853 1.918873 0.422971
v -0.725853 1.418874 0.030903
v 1.024147 1.668873 0.422970
v 0.774147 -0.081127 0.422969
v -0.975853 0.168873 0.422969
v -0.725853 0.418874 0.030902
v 0.524147 1.918873 0.422971
v 1.024147 0.418873 0.422969
v -0.975853 1.418873 0.422970
v -0.475853 1.918873 0.422971
v 0.774147 0.418874 0.030902
v 0.774147 1.668874 0.030903
v -0.225853 1.668874 0.030903
v 1.024147 1.418873 0.422970
v 0.774147 0.668874 0.030903
v 0.274147 1.668874 0.030903
v -0.975853 0.418873 0.422969
v 0.774147 1.168874 0.030903
v -0.725853 1.668874 0.030903
v -0.725853 1.168874 0.030903
v 0.024147 1.918873 0.422971
v -0.725853 0.668874 0.030903
v -0.725853 0.168874 0.030902
v 1.024147 0.918873 0.422970
v -0.975853 0.918873 0.422970
v 1.024147 1.918873 0.422971
v 0.774147 0.168874 0.030902
v 0.774147 0.418873 0.422969
v 0.774147 1.668873 0.422970
v -0.225853 1.668873 0.422970
v 0.774147 0.668873 0.422970
v 0.274147 1.668873 0.422970
v 0.774147 1.168873 0.422970
v -0.725853 1.668873 0.422970
v -0.725853 1.168873 0.422970
v -0.725853 0.668873 0.422970
v -0.725853 0.168873 0.422969
v 0.774147 0.168873 0.422969
vt 0.072384 0.567961
vt 0.007755 0.567961
vt 0.007755 0.507282
vt 0.072384 0.507282
vt 0.072384 0.810680
vt 0.007755 0.810680
vt 0.007755 0.750000
vt 0.072384 0.750000
vt 0.758514 0.128641
vt 0.758514 0.189320
vt 0.657159 0.189320
vt 0.657159 0.128641
vt 0.330897 0.567961
vt 0.266269 0.567961
vt 0.266269 0.507282
vt 0.330897 0.507282
vt 0.072384 0.689320
vt 0.007755 0.689320
vt 0.007755 0.628641
vt 0.072384 0.628641
vt 0.540293 0.128641
vt 0.540293 0.067961
vt 0.641648 0.067961
vt 0.641648 0.128641
vt 0.201641 0.567961
vt 0.137012 0.567961
vt 0.137012 0.507282
vt 0.201641 0.507282
vt 0.072384 0.932039
vt 0.007755 0.932039
vt 0.007755 0.871359
vt 0.072384 0.871359
vt 0.890890 0.628641
vt 0.890890 0.567961
vt 0.992245 0.567961
vt 0.992245 0.628641
vt 0.774024 0.189320
vt 0.774024 0.128641
vt 0.875379 0.128641
vt 0.875379 0.189320
vt 0.657159 0.810680
vt 0.657159 0.750000
vt 0.758514 0.750000
vt 0.758514 0.810680
vt 0.540293 0.310680
vt 0.540293 0.250000
vt 0.641648 0.250000
vt 0.641648 0.310680
vt 0.641648 0.602444
vt 0.577020 0.602444
vt 0.577020 0.507282
vt 0.641648 0.507282
vt 0.890890 0.250000
vt 0.890890 0.189320
vt 0.992245 0.189320
vt 0.992245 0.250000
vt 0.890890 0.128641
vt 0.992245 0.128641
vt 0.460154 0.567961
vt 0.395526 0.567961
vt 0.395526 0.507282
vt 0.460154 0.507282
vt 0.201641 0.067961
vt 0.201641 0.007282
vt 0.266269 0.007282
vt 0.266269 0.067961
vt 0.774024 0.492718
vt 0.774024 0.432039
vt 0.875379 0.432039
vt 0.875379 0.492718
vt 0.758514 0.310680
vt 0.758514 0.371359
vt 0.657159 0.371359
vt 0.657159 0.310680
vt 0.890890 0.507282
vt 0.992245 0.507282
vt 0.657159 0.628641
vt 0.657159 0.567961
vt 0.758514 0.567961
vt 0.758514 0.628641
vt 0.657159 0.507282
vt 0.758514 0.507282
vt 0.540293 0.189320
vt 0.641648 0.189320
vt 0.890890 0.689320
vt 0.992245 0.689320
vt 0.758514 0.007282
vt 0.758514 0.067961
vt 0.657159 0.067961
vt 0.657159 0.007282
vt 0.540293 0.371359
vt 0.641648 0.371359
vt 0.890890 0.067961
vt 0.890890 0.007282
vt 0.992245 0.007282
vt 0.992245 0.067961
vt 0.774024 0.067961
vt 0.774024 0.007282
vt 0.875379 0.007282
vt 0.875379 0.067961
vt 0.007755 0.067961
vt 0.007755 0.007282
vt 0.072384 0.007282
vt 0.072384 0.067961
vt 0.460154 0.310680
vt 0.460154 0.250000
vt 0.524782 0.250000
vt 0.524782 0.310680
vt 0.460154 0.067961
vt 0.460154 0.007282
vt 0.524782 0.007282
vt 0.524782 0.067961
vt 0.072384 0.992718
vt 0.007755 0.992718
vt 0.137012 0.992718
vt 0.137012 0.932039
vt 0.007755 0.492718
vt 0.007755 0.432039
vt 0.072384 0.432039
vt 0.072384 0.492718
vt 0.201641 0.992718
vt 0.201641 0.932039
vt 0.266269 0.992718
vt 0.266269 0.932039
vt 0.137012 0.432039
vt 0.137012 0.492718
vt 0.201641 0.432039
vt 0.201641 0.492718
vt 0.266269 0.432039
vt 0.266269 0.492718
vt 0.330897 0.432039
vt 0.330897 0.492718
vt 0.330897 0.992718
vt 0.330897 0.932039
vt 0.395526 0.992718
vt 0.395526 0.932039
vt 0.395526 0.432039
vt 0.395526 0.492718
vt 0.460154 0.992718
vt 0.460154 0.932039
vt 0.524783 0.992718
vt 0.524782 0.932039
vt 0.460154 0.432039
vt 0.460154 0.492718
vt 0.524783 0.432039
vt 0.524783 0.492718
vt 0.330897 0.007282
vt 0.330897 0.067961
vt 0.460154 0.189320
vt 0.524782 0.189320
vt 0.137012 0.067961
vt 0.137012 0.007282
vt 0.460154 0.371359
vt 0.524783 0.371359
vt 0.395526 0.067961
vt 0.395526 0.007282
vt 0.460154 0.128641
vt 0.524782 0.128641
vt 0.524782 0.567961
vt 0.524782 0.507282
vt 0.758514 0.250000
vt 0.657159 0.250000
vt 0.890890 0.446602
vt 0.992245 0.446602
vt 0.890890 0.371359
vt 0.890890 0.310680
vt 0.992245 0.310680
vt 0.992245 0.371359
vt 0.774024 0.371359
vt 0.774024 0.310680
vt 0.875379 0.310680
vt 0.875379 0.371359
vt 0.641648 0.712168
vt 0.577020 0.712168
vt 0.577020 0.617007
vt 0.641648 0.617007
vt 0.774024 0.250000
vt 0.875379 0.250000
vt 0.540293 0.432039
vt 0.641648 0.432039
vt 0.890890 0.810680
vt 0.890890 0.750000
vt 0.992245 0.750000
vt 0.992245 0.810680
vt 0.540293 0.007282
vt 0.641648 0.007282
vt 0.657159 0.689320
vt 0.758514 0.689320
vt 0.657159 0.871359
vt 0.758514 0.871359
vt 0.758514 0.432039
vt 0.657159 0.432039
vt 0.890890 0.432039
vt 0.992245 0.432039
vt 0.540293 0.492718
vt 0.641648 0.492718
vt 0.890890 0.871359
vt 0.992245 0.871359
vt 0.758514 0.492718
vt 0.657159 0.492718
vn 0.000000 0.000000 -1.000000
vn 0.000000 1.000000 0.000000
vn 1.000000 -0.000000 0.000000
vn -1.000000 -0.000000 0.000000
vn 0.000000 -1.000000 -0.000000
vn 0.000000 -0.000000 1.000000
usemtl Material.004
s off
f 66/1/1 33/2/1 4/3/1 28/4/1
f 67/5/1 41/6/1 8/7/1 34/8/1
f 17/9/2 45/10/2 20/11/2 61/12/2
f 69/13/1 49/14/1 7/15/1 44/16/1
f 70/17/1 45/18/1 17/19/1 50/20/1
f 12/21/3 28/22/3 57/23/3 68/24/3
f 72/25/1 53/26/1 12/27/1 40/28/1
f 73/29/1 29/30/1 13/31/1 54/32/1
f 69/33/4 65/34/4 82/35/4 85/36/4
f 38/37/4 10/38/4 71/39/4 37/40/4
f 54/41/5 67/42/5 84/43/5 11/44/5
f 44/45/3 7/46/3 78/47/3 23/48/3
f 27/49/5 2/50/5 22/51/5 58/52/5
f 76/53/3 36/54/3 39/55/3 90/56/3
f 36/54/3 74/57/3 89/58/3 39/55/3
f 81/59/1 65/60/1 16/61/1 32/62/1
f 50/20/1 17/19/1 33/2/1 66/1/1
f 85/63/6 23/64/6 78/65/6 19/66/6
f 53/26/1 66/1/1 28/4/1 12/27/1
f 54/32/1 13/31/1 41/6/1 67/5/1
f 3/67/4 30/68/4 52/69/4 21/70/4
f 41/71/2 13/72/2 64/73/2 25/74/2
f 65/34/4 81/75/4 92/76/4 82/35/4
f 70/77/5 50/78/5 18/79/5 86/80/5
f 50/78/5 66/81/5 83/82/5 18/79/5
f 7/46/3 40/83/3 35/84/3 78/47/3
f 49/85/4 69/33/4 85/36/4 19/86/4
f 65/60/1 69/13/1 44/16/1 16/61/1
f 34/8/1 8/7/1 45/18/1 70/17/1
f 4/87/2 33/88/2 46/89/2 80/90/2
f 16/91/3 44/45/3 23/48/3 62/92/3
f 56/93/3 73/94/3 88/95/3 9/96/3
f 26/97/4 1/98/4 51/99/4 59/100/4
f 58/101/6 22/102/6 47/103/6 92/104/6
f 84/105/6 43/106/6 75/107/6 25/108/6
f 83/109/6 57/110/6 80/111/6 46/112/6
f 49/14/1 72/25/1 40/28/1 7/15/1
f 30/113/1 3/114/1 29/30/1 73/29/1
f 14/115/1 30/113/1 73/29/1 56/116/1
f 51/117/6 48/118/6 91/119/6 59/120/6
f 42/121/1 14/115/1 56/116/1 74/122/1
f 5/123/1 42/121/1 74/122/1 36/124/1
f 59/120/6 91/119/6 6/125/6 71/126/6
f 71/126/6 6/125/6 90/127/6 37/128/6
f 37/128/6 90/127/6 39/129/6 79/130/6
f 79/130/6 39/129/6 89/131/6 24/132/6
f 38/133/1 5/123/1 36/124/1 76/134/1
f 10/135/1 38/133/1 76/134/1 60/136/1
f 24/132/6 89/131/6 9/137/6 63/138/6
f 26/139/1 10/135/1 60/136/1 77/140/1
f 1/141/1 26/139/1 77/140/1 31/142/1
f 63/138/6 9/137/6 88/143/6 52/144/6
f 52/144/6 88/143/6 55/145/6 21/146/6
f 19/66/6 78/65/6 35/147/6 87/148/6
f 43/106/6 86/149/6 20/150/6 75/107/6
f 82/151/6 62/152/6 23/64/6 85/63/6
f 11/153/6 84/105/6 25/108/6 64/154/6
f 15/155/6 68/156/6 57/110/6 83/109/6
f 18/157/6 83/109/6 46/112/6 61/158/6
f 92/104/6 47/103/6 62/152/6 82/151/6
f 88/143/6 11/153/6 64/154/6 55/145/6
f 87/148/6 35/147/6 68/156/6 15/155/6
f 86/149/6 18/157/6 61/158/6 20/150/6
f 27/159/1 81/59/1 32/62/1 2/160/1
f 8/161/2 41/71/2 25/74/2 75/162/2
f 81/75/4 27/163/4 58/164/4 92/76/4
f 77/165/3 60/166/3 6/167/3 91/168/3
f 14/169/4 42/170/4 24/171/4 63/172/4
f 1/173/5 31/174/5 48/175/5 51/176/5
f 5/177/4 38/37/4 37/40/4 79/178/4
f 32/179/3 16/91/3 62/92/3 47/180/3
f 60/166/3 76/53/3 90/56/3 6/167/3
f 53/181/4 72/182/4 87/183/4 15/184/4
f 28/22/3 4/185/3 80/186/3 57/23/3
f 45/10/2 8/161/2 75/162/2 20/11/2
f 67/42/5 34/187/5 43/188/5 84/43/5
f 73/189/5 54/41/5 11/44/5 88/190/5
f 13/72/2 29/191/2 55/192/2 64/73/2
f 42/170/4 5/177/4 79/178/4 24/171/4
f 31/193/3 77/165/3 91/168/3 48/194/3
f 10/38/4 26/97/4 59/100/4 71/39/4
f 2/195/3 32/179/3 47/180/3 22/196/3
f 33/88/2 17/9/2 61/12/2 46/89/2
f 66/197/4 53/181/4 15/184/4 83/198/4
f 34/187/5 70/77/5 86/80/5 43/188/5
f 72/182/4 49/85/4 19/86/4 87/183/4
f 29/191/2 3/199/2 21/200/2 55/192/2
f 40/83/3 12/21/3 68/24/3 35/84/3
f 74/57/3 56/93/3 9/96/3 89/58/3
f 30/68/4 14/169/4 63/172/4 52/69/4
