# Blender v2.72 (sub 0) OBJ File: ''
# www.blender.org
mtllib body_male.mtl
o male_i_anim_male_i_anim_milkshape.ms3d.m
v -0.161277 0.060052 -0.042444
v -0.141552 0.062010 -0.184193
v -0.122242 -0.003307 -0.181477
v -0.048675 0.061787 -0.030896
v -0.040883 -0.003092 -0.032893
v -0.057663 -0.001907 -0.177932
v -0.018751 0.399238 -0.043773
v -0.057453 0.291705 -0.075753
v -0.032639 0.293577 -0.189699
v -0.021965 0.426543 -0.174064
v -0.152921 0.293071 -0.088230
v -0.142049 0.526923 -0.035754
v -0.145706 0.535277 -0.158083
v -0.151622 0.301393 -0.192597
v -0.049566 0.466384 -0.033438
v -0.149123 0.104752 -0.083362
v -0.077431 0.100553 -0.080447
v -0.056641 0.061692 -0.176878
v -0.165629 -0.003195 -0.050038
v 0.012147 0.552892 -0.184607
v -0.165629 -0.003195 -0.050038
v -0.122242 -0.003307 -0.181477
v -0.057663 -0.001907 -0.177932
v -0.040883 -0.003092 -0.032893
v -0.072232 0.049167 -0.000399
v -0.151179 0.049151 -0.009672
v -0.149877 -0.000008 0.005488
v -0.074673 0.003300 0.016949
v -0.074673 0.003300 0.016949
v -0.149877 -0.000008 0.005488
v 0.011856 0.432310 -0.155196
v 0.008672 0.407294 -0.042689
v 0.007893 0.451848 -0.037290
v -0.258375 0.728867 -0.180742
v -0.243330 0.805862 -0.175943
v -0.148611 0.763622 -0.188180
v -0.166514 0.681734 -0.186343
v -0.180709 0.691549 -0.069429
v -0.254979 0.751900 -0.093349
v -0.230233 0.382574 -0.094428
v -0.231748 0.412396 -0.086152
v -0.270614 0.417942 -0.094396
v -0.131719 0.846636 -0.198261
v -0.233983 0.885382 -0.145436
v -0.196844 0.574232 -0.171247
v -0.256976 0.622698 -0.169764
v -0.207682 0.410629 -0.087572
v -0.214271 0.428180 -0.072597
v -0.264282 0.619728 -0.104980
v -0.261309 0.506764 -0.093536
v -0.218605 0.490528 -0.076840
v -0.201984 0.575277 -0.102921
v -0.190392 0.406317 -0.150333
v -0.198621 0.473711 -0.162842
v -0.250925 0.413987 -0.154868
v -0.206740 0.378308 -0.139016
v -0.237152 0.493401 -0.165545
v -0.130327 0.974591 -0.169684
v -0.136218 0.971245 -0.082378
v -0.227117 0.885687 -0.065696
v -0.146812 0.815373 -0.039184
v 0.012536 1.003155 -0.121625
v 0.007831 0.554826 -0.023921
v 0.008107 0.824720 -0.031122
v 0.012566 0.860315 -0.203052
v 0.178242 0.065456 -0.031021
v 0.145565 0.002098 -0.171431
v 0.165833 0.083140 -0.172918
v 0.065213 0.067192 -0.023806
v 0.080882 0.003498 -0.170369
v 0.057520 0.002312 -0.026101
v 0.036905 0.393740 -0.042530
v 0.045633 0.427980 -0.170943
v 0.051720 0.289672 -0.182226
v 0.071264 0.293445 -0.067340
v 0.167222 0.294325 -0.076126
v 0.170680 0.302219 -0.180092
v 0.168280 0.536618 -0.148868
v 0.159392 0.524090 -0.026969
v 0.065849 0.466389 -0.030239
v 0.168812 0.112418 -0.071880
v 0.097059 0.108219 -0.071722
v 0.080673 0.082771 -0.168870
v 0.182937 0.002209 -0.038440
v 0.182937 0.002209 -0.038440
v 0.057520 0.002312 -0.026101
v 0.080882 0.003498 -0.170369
v 0.145565 0.002098 -0.171431
v 0.087362 0.054571 0.007568
v 0.166662 0.054554 0.001335
v 0.089013 0.008703 0.024995
v 0.164672 0.005396 0.016433
v 0.164672 0.005396 0.016433
v 0.089013 0.008703 0.024995
v 0.286744 0.762797 -0.189060
v 0.190697 0.706166 -0.187916
v 0.189792 0.762889 -0.179363
v 0.267122 0.844556 -0.193004
v 0.206577 0.736771 -0.065840
v 0.283853 0.800705 -0.099837
v 0.250445 0.384897 -0.053214
v 0.289042 0.413531 -0.060528
v 0.253448 0.413061 -0.050861
v 0.156556 0.846780 -0.192798
v 0.252974 0.932969 -0.170326
v 0.296027 0.648206 -0.184044
v 0.221551 0.597350 -0.172482
v 0.238529 0.431043 -0.040748
v 0.231361 0.413095 -0.051017
v 0.306167 0.659141 -0.108048
v 0.245445 0.485962 -0.055229
v 0.284899 0.494216 -0.074427
v 0.229463 0.614020 -0.093134
v 0.224690 0.456943 -0.128990
v 0.214129 0.399283 -0.106096
v 0.227909 0.374877 -0.091759
v 0.269681 0.400639 -0.113528
v 0.260777 0.471145 -0.136053
v 0.152577 0.973893 -0.163892
v 0.155784 0.970743 -0.076512
v 0.247371 0.918126 -0.086518
v 0.163747 0.815417 -0.033241
vt 0.911100 0.409500
vt 0.787100 0.462300
vt 0.784000 0.356100
vt 0.951000 0.482300
vt 0.997300 0.488700
vt 0.997300 0.634500
vt 0.766300 0.079100
vt 0.835900 0.098700
vt 0.850500 0.005700
vt 0.786200 0.005000
vt 0.843300 0.168300
vt 0.723600 0.166300
vt 0.723600 0.253000
vt 0.832600 0.256100
vt 0.723600 0.102100
vt 0.872600 0.462300
vt 0.907000 0.527800
vt 0.907000 0.634500
vt 0.909500 0.356100
vt 0.723600 0.462300
vt 0.723600 0.356100
vt 0.885000 0.952200
vt 0.983100 0.930400
vt 0.965100 0.992200
vt 0.954800 0.268500
vt 0.954800 0.167400
vt 0.954800 0.346800
vt 0.811600 0.346200
vt 0.852000 0.626600
vt 0.994300 0.663100
vt 0.993800 0.729500
vt 0.841200 0.755200
vt 0.963900 0.451800
vt 0.933800 0.405500
vt 0.958700 0.375600
vt 0.997300 0.433300
vt 0.777100 0.723800
vt 0.785200 0.646000
vt 0.995400 0.992200
vt 0.755800 0.069300
vt 0.723600 0.068600
vt 0.761200 0.005000
vt 0.954800 0.005000
vt 0.954800 0.098500
vt 0.723600 0.346800
vt 0.428600 0.917100
vt 0.425600 0.865700
vt 0.361200 0.873500
vt 0.361200 0.924600
vt 0.664000 0.917800
vt 0.664000 0.873500
vt 0.570100 0.898300
vt 0.497500 0.888000
vt 0.082300 0.763500
vt 0.042100 0.795000
vt 0.077700 0.816700
vt 0.361200 0.815400
vt 0.436200 0.815400
vt 0.361200 0.992700
vt 0.435000 0.992700
vt 0.005300 0.763500
vt 0.005300 0.812800
vt 0.077200 0.992500
vt 0.065300 0.920600
vt 0.005300 0.920800
vt 0.005300 0.992500
vt 0.584800 0.992700
vt 0.664000 0.992700
vt 0.507800 0.992700
vt 0.353100 0.951700
vt 0.317300 0.812400
vt 0.210600 0.816800
vt 0.198400 0.930500
vt 0.145400 0.829800
vt 0.164800 0.763500
vt 0.353400 0.822100
vt 0.157300 0.927800
vt 0.291300 0.992500
vt 0.205200 0.992500
vt 0.139200 0.992500
vt 0.308300 0.764700
vt 0.235500 0.763500
vt 0.430300 0.763300
vt 0.491200 0.763300
vt 0.489700 0.815400
vt 0.557800 0.815400
vt 0.664000 0.815400
vt 0.768600 0.582400
vt 0.808500 0.612100
vt 0.772300 0.658900
vt 0.769700 0.760400
vt 0.781500 0.959800
vt 0.670400 0.933900
vt 0.670400 0.760400
vt 0.889200 0.760400
vt 0.995400 0.760400
vt 0.670400 0.992200
vt 0.709600 0.992200
vt 0.850400 0.006700
vt 0.835800 0.099300
vt 0.843000 0.168700
vt 0.832700 0.257300
vt 0.811300 0.346700
vt 0.717500 0.630600
vt 0.885300 0.614500
vt 0.786400 0.500200
vt 0.885300 0.500200
vn -0.817500 0.492900 0.297900
vn -0.658200 -0.114000 -0.744100
vn -0.530300 -0.114400 -0.840000
vn 0.728700 0.576600 0.369600
vn 0.965700 0.130600 0.224300
vn 0.714900 0.101300 -0.691800
vn 0.318600 -0.533900 0.783200
vn 0.541400 -0.247700 0.803400
vn 0.738200 -0.091400 -0.668300
vn 0.425900 -0.215400 -0.878700
vn -0.789300 -0.064600 0.610600
vn -0.709200 -0.034300 0.704100
vn -0.780900 0.027500 -0.624000
vn -0.681400 0.026300 -0.731400
vn -0.069700 -0.150000 0.986200
vn -0.817600 0.294000 0.495100
vn 0.707800 0.383600 0.593100
vn 0.802800 -0.055000 -0.593700
vn -0.995800 0.080600 -0.043900
vn 0.030700 -0.069100 -0.997100
vn 0.000600 -0.999700 0.024900
vn 0.021200 -0.999700 0.007900
vn 0.012200 -0.999900 0.000200
vn 0.005400 -0.999000 0.044400
vn 0.310800 0.586400 0.747900
vn -0.541400 0.556500 0.630200
vn -0.605300 0.236000 0.760200
vn 0.345700 0.315800 0.883600
vn 0.021900 -0.989700 0.141800
vn -0.000100 -0.996800 0.079800
vn 0.038300 -0.779200 -0.625600
vn -0.068500 -0.742500 0.666300
vn -0.028200 -0.130400 0.991000
vn -0.745800 0.043900 -0.664700
vn -0.711900 0.195000 -0.674600
vn 0.715000 -0.174000 -0.677100
vn 0.685800 -0.233000 -0.689400
vn 0.480200 -0.276700 0.832400
vn -0.846500 0.019900 0.532000
vn -0.086000 -0.882700 0.461900
vn -0.200600 -0.238700 0.950100
vn -0.854800 -0.298800 0.424300
vn -0.134900 0.080400 -0.987600
vn -0.794700 0.464400 -0.390800
vn 0.666600 -0.167300 -0.726300
vn -0.719900 -0.067400 -0.690800
vn 0.708300 -0.371700 0.600100
vn 0.281800 -0.124100 0.951400
vn -0.832600 -0.022900 0.553300
vn -0.873000 0.019200 0.487400
vn 0.412100 0.035000 0.910500
vn 0.735600 -0.045900 0.675800
vn 0.808700 -0.310500 -0.499500
vn 0.739300 -0.076900 -0.669000
vn -0.603700 -0.377600 -0.702100
vn 0.352500 -0.906400 -0.232500
vn -0.513900 -0.056600 -0.856000
vn -0.250000 0.723500 -0.643400
vn -0.262000 0.756000 0.599800
vn -0.679300 0.382900 0.626100
vn -0.205500 0.028100 0.978200
vn 0.000400 0.999800 0.016800
vn -0.027000 -0.029600 0.999200
vn -0.018900 0.252400 0.967400
vn 0.019500 0.217700 -0.975800
vn 0.808300 0.479400 0.341800
vn 0.572800 -0.088900 -0.814800
vn 0.689000 -0.082700 -0.720100
vn -0.746500 0.572100 0.339800
vn -0.684900 0.109400 -0.720400
vn -0.974700 0.130800 0.181300
vn -0.437300 -0.491900 0.752900
vn -0.356900 -0.219900 -0.907900
vn -0.721100 -0.106900 -0.684500
vn -0.576200 -0.243500 0.780100
vn 0.756200 -0.058500 0.651700
vn 0.711100 0.017800 -0.702800
vn 0.812900 0.014600 -0.582200
vn 0.673100 -0.037800 0.738500
vn 0.008500 -0.144700 0.989400
vn 0.793100 0.294800 0.533000
vn -0.727500 0.366900 0.579700
vn -0.771000 -0.061700 -0.633800
vn 0.996700 0.080700 0.000700
vn -0.001600 -0.999700 0.024700
vn -0.007200 -0.999000 0.044400
vn -0.012200 -0.999900 -0.000300
vn -0.021500 -0.999700 0.006900
vn -0.341000 0.586400 0.734800
vn 0.514600 0.556400 0.652400
vn -0.382000 0.316200 0.868400
vn 0.573000 0.235500 0.785000
vn -0.002900 -0.996800 0.079700
vn -0.027300 -0.989700 0.140600
vn 0.687000 0.073900 -0.722900
vn -0.744000 -0.139800 -0.653300
vn -0.742700 -0.162700 -0.649600
vn 0.610500 0.161300 -0.775400
vn -0.413400 -0.317100 0.853500
vn 0.863200 0.115200 0.491600
vn 0.045000 -0.782600 0.620800
vn 0.851000 -0.271400 0.449500
vn 0.227900 -0.069800 0.971200
vn 0.026600 0.001100 -0.999600
vn 0.626500 0.601500 -0.495600
vn 0.640800 -0.094500 -0.761800
vn -0.678600 -0.257800 -0.687700
vn -0.257700 0.072600 0.963500
vn -0.707500 -0.213700 0.673500
vn 0.873800 0.020100 0.485800
vn -0.381600 0.169000 0.908700
vn 0.897500 0.002000 0.440900
vn -0.652200 -0.011400 0.757900
vn -0.766400 -0.176800 -0.617500
vn -0.845200 -0.342500 -0.410100
vn -0.415500 -0.908100 -0.051400
vn 0.551800 -0.543700 -0.632400
vn 0.486900 -0.260000 -0.833800
vn 0.104200 0.766500 -0.633700
vn 0.164600 0.740100 0.652100
vn 0.676400 0.472800 0.564700
vn 0.284200 0.011400 0.958700
usemtl Material.004
s 1
f 1/1/1 2/2/2 3/3/3
f 4/4/4 5/5/5 6/6/6
f 7/7/7 8/8/8 9/9/9
f 9/9/9 10/10/10 7/7/7
f 11/11/11 12/12/12 13/13/13
f 13/13/13 14/14/14 11/11/11
f 7/7/7 15/15/15 8/8/8
f 16/16/16 1/1/1 4/4/4
f 1/1/1 16/16/16 2/2/2
f 17/17/17 6/6/6 18/18/18
f 6/6/6 17/17/17 4/4/4
f 1/1/1 3/3/3 19/19/19
f 18/20/18 6/21/6 3/3/3
f 3/3/3 2/2/2 18/20/18
f 17/17/17 16/16/16 4/4/4
f 13/22/13 20/23/20 10/24/10
f 2/25/2 16/26/16 11/11/11
f 11/11/11 14/14/14 2/25/2
f 18/27/18 2/25/2 14/14/14
f 14/14/14 9/28/9 18/27/18
f 21/29/21 22/30/22 23/31/23
f 23/31/23 24/32/24 21/29/21
f 4/4/4 1/1/1 25/33/25
f 1/1/1 26/34/26 25/33/25
f 25/33/25 26/34/26 27/35/27
f 27/35/27 28/36/28 25/33/25
f 24/32/24 29/37/29 30/38/30
f 30/38/30 21/29/21 24/32/24
f 19/19/19 27/35/27 26/34/26
f 26/34/26 1/1/1 19/19/19
f 25/33/25 28/36/28 5/5/5
f 5/5/5 4/4/4 25/33/25
f 20/23/20 31/39/31 10/24/10
f 7/7/7 32/40/32 33/41/33
f 33/41/33 15/15/15 7/7/7
f 10/10/10 31/42/31 32/40/32
f 32/40/32 7/7/7 10/10/10
f 18/43/18 9/9/9 8/8/8
f 8/8/8 17/44/17 18/43/18
f 16/26/16 17/44/17 8/8/8
f 8/8/8 11/11/11 16/26/16
f 10/45/10 9/28/9 14/14/14
f 14/14/14 13/13/13 10/45/10
f 15/15/15 12/12/12 11/11/11
f 11/11/11 8/8/8 15/15/15
f 34/46/34 35/47/35 36/48/36
f 36/48/36 37/49/37 34/46/34
f 37/50/37 36/51/36 38/52/38
f 34/46/34 39/53/39 35/47/35
f 40/54/40 41/55/41 42/56/42
f 43/57/43 36/48/36 35/47/35
f 35/47/35 44/58/44 43/57/43
f 34/46/34 37/49/37 45/59/45
f 45/59/45 46/60/46 34/46/34
f 41/55/41 47/61/47 48/62/48
f 49/63/49 50/64/50 51/65/51
f 51/65/51 52/66/52 49/63/49
f 38/52/38 52/67/52 45/68/45
f 45/68/45 37/50/37 38/52/38
f 46/60/46 49/69/49 39/53/39
f 39/53/39 34/46/34 46/60/46
f 51/70/51 47/71/47 53/72/53
f 53/72/53 54/73/54 51/70/51
f 40/54/40 47/61/47 41/55/41
f 42/56/42 55/74/55 56/75/56
f 56/75/56 40/54/40 42/56/42
f 53/72/53 56/75/56 55/74/55
f 38/52/38 39/53/39 49/69/49
f 49/69/49 52/67/52 38/52/38
f 41/55/41 48/62/48 51/65/51
f 51/65/51 50/64/50 41/55/41
f 47/71/47 51/70/51 48/76/48
f 42/56/42 41/55/41 50/64/50
f 50/64/50 57/77/57 55/74/55
f 55/74/55 42/56/42 50/64/50
f 53/72/53 55/74/55 57/77/57
f 57/77/57 54/73/54 53/72/53
f 52/78/52 51/70/51 54/73/54
f 54/73/54 45/79/45 52/78/52
f 46/80/46 57/77/57 50/64/50
f 50/64/50 49/63/49 46/80/46
f 46/80/46 45/79/45 54/73/54
f 54/73/54 57/77/57 46/80/46
f 40/81/40 56/82/56 53/72/53
f 53/72/53 47/71/47 40/81/40
f 58/83/58 43/57/43 44/58/44
f 59/84/59 58/83/58 44/58/44
f 44/58/44 60/85/60 59/84/59
f 60/85/60 61/86/61 59/84/59
f 43/87/43 61/86/61 38/52/38
f 38/52/38 36/51/36 43/87/43
f 61/86/61 60/85/60 39/53/39
f 39/53/39 38/52/38 61/86/61
f 44/58/44 35/47/35 39/53/39
f 39/53/39 60/85/60 44/58/44
f 62/88/62 58/89/58 59/90/59
f 61/91/61 12/92/12 63/93/63
f 63/93/63 64/94/64 61/91/61
f 12/92/12 61/91/61 43/95/43
f 43/95/43 13/22/13 12/92/12
f 65/96/65 20/23/20 13/22/13
f 13/22/13 43/95/43 65/96/65
f 33/97/33 63/93/63 15/98/15
f 12/92/12 15/98/15 63/93/63
f 66/1/66 67/3/67 68/2/68
f 69/4/69 70/6/70 71/5/71
f 72/7/72 73/10/73 74/99/74
f 74/99/74 75/100/75 72/7/72
f 76/101/76 77/102/77 78/13/78
f 78/13/78 79/12/79 76/101/76
f 72/7/72 75/100/75 80/15/80
f 81/16/81 69/4/69 66/1/66
f 66/1/66 68/2/68 81/16/81
f 82/17/82 83/18/83 70/6/70
f 70/6/70 69/4/69 82/17/82
f 66/1/66 84/19/84 67/3/67
f 83/20/83 68/2/68 67/3/67
f 67/3/67 70/21/70 83/20/83
f 82/17/82 69/4/69 81/16/81
f 78/22/78 73/24/73 20/23/20
f 68/25/68 77/102/77 76/101/76
f 76/101/76 81/26/81 68/25/68
f 83/27/83 74/103/74 77/102/77
f 77/102/77 68/25/68 83/27/83
f 85/29/85 86/32/86 87/31/87
f 87/31/87 88/30/88 85/29/85
f 89/33/89 90/34/90 66/1/66
f 66/1/66 69/4/69 89/33/89
f 89/33/89 91/36/91 92/35/92
f 92/35/92 90/34/90 89/33/89
f 86/32/86 85/29/85 93/38/93
f 93/38/93 94/37/94 86/32/86
f 84/19/84 66/1/66 90/34/90
f 90/34/90 92/35/92 84/19/84
f 89/33/89 69/4/69 71/5/71
f 71/5/71 91/36/91 89/33/89
f 20/23/20 73/24/73 31/39/31
f 72/7/72 80/15/80 33/41/33
f 33/41/33 32/40/32 72/7/72
f 73/10/73 72/7/72 32/40/32
f 32/40/32 31/42/31 73/10/73
f 83/43/83 82/44/82 75/100/75
f 75/100/75 74/99/74 83/43/83
f 81/26/81 76/101/76 75/100/75
f 75/100/75 82/44/82 81/26/81
f 73/45/73 78/13/78 77/102/77
f 77/102/77 74/103/74 73/45/73
f 80/15/80 75/100/75 76/101/76
f 76/101/76 79/12/79 80/15/80
f 95/46/95 96/49/96 97/48/97
f 97/48/97 98/47/98 95/46/95
f 96/50/96 99/52/99 97/51/97
f 95/46/95 98/47/98 100/53/100
f 101/54/101 102/56/102 103/55/103
f 104/57/104 105/58/105 98/47/98
f 98/47/98 97/48/97 104/57/104
f 95/46/95 106/60/106 107/59/107
f 107/59/107 96/49/96 95/46/95
f 103/55/103 108/62/108 109/61/109
f 110/63/110 111/65/111 112/64/112
f 111/65/111 110/63/110 113/66/113
f 99/52/99 96/50/96 107/68/107
f 107/68/107 113/67/113 99/52/99
f 106/60/106 95/46/95 100/53/100
f 100/53/100 110/69/110 106/60/106
f 111/70/111 114/73/114 115/72/115
f 115/72/115 109/71/109 111/70/111
f 101/54/101 103/55/103 109/61/109
f 102/56/102 101/54/101 116/75/116
f 116/75/116 117/74/117 102/56/102
f 115/72/115 117/74/117 116/75/116
f 99/52/99 113/67/113 110/69/110
f 110/69/110 100/53/100 99/52/99
f 103/55/103 112/64/112 111/65/111
f 111/65/111 108/62/108 103/55/103
f 109/71/109 108/76/108 111/70/111
f 102/56/102 112/64/112 103/55/103
f 112/64/112 102/56/102 117/74/117
f 117/74/117 118/77/118 112/64/112
f 115/72/115 114/73/114 118/77/118
f 118/77/118 117/74/117 115/72/115
f 113/78/113 107/79/107 114/73/114
f 114/73/114 111/70/111 113/78/113
f 106/80/106 110/63/110 112/64/112
f 112/64/112 118/77/118 106/80/106
f 106/80/106 118/77/118 114/73/114
f 114/73/114 107/79/107 106/80/106
f 101/81/101 109/71/109 115/72/115
f 115/72/115 116/82/116 101/81/101
f 119/83/119 105/58/105 104/57/104
f 120/84/120 121/85/121 105/58/105
f 105/58/105 119/83/119 120/84/120
f 121/85/121 120/84/120 122/86/122
f 104/87/104 97/51/97 99/52/99
f 99/52/99 122/86/122 104/87/104
f 122/86/122 99/52/99 100/53/100
f 100/53/100 121/85/121 122/86/122
f 105/58/105 121/85/121 100/53/100
f 100/53/100 98/47/98 105/58/105
f 122/91/122 64/94/64 63/93/63
f 63/93/63 79/92/79 122/91/122
f 79/92/79 78/22/78 104/95/104
f 104/95/104 122/91/122 79/92/79
f 65/96/65 104/95/104 78/22/78
f 78/22/78 20/23/20 65/96/65
f 33/97/33 80/98/80 63/93/63
f 63/93/63 80/98/80 79/92/79
f 61/91/61 64/94/64 62/104/62
f 62/104/62 59/90/59 61/91/61
f 43/105/43 58/89/58 62/106/62
f 62/106/62 65/107/65 43/105/43
f 122/91/122 120/90/120 62/104/62
f 62/104/62 64/94/64 122/91/122
f 104/105/104 65/107/65 62/106/62
f 62/106/62 119/89/119 104/105/104
f 120/90/120 119/89/119 62/88/62
