# Blender v2.72 (sub 0) OBJ File: ''
# www.blender.org
mtllib body_male.mtl
o female_anim_milkshape.ms3d.mo_female_anim_milkshape.ms3d.m
v -0.101910 0.508600 -0.060633
v -0.071111 0.597706 -0.062507
v -0.110897 0.512860 -0.153836
v -0.000292 0.713873 -0.004888
v -0.075875 0.708675 -0.016347
v -0.000292 0.616185 -0.025243
v -0.041465 0.852242 -0.086106
v -0.050115 0.873629 -0.150335
v -0.083942 0.845644 -0.176711
v -0.085675 0.842676 -0.097114
v -0.000292 0.848116 -0.067975
v -0.000292 0.878174 -0.182469
v -0.000292 0.744015 -0.209290
v -0.089167 0.732733 -0.193848
v -0.159258 0.785388 -0.187267
v -0.165863 0.746951 -0.138869
v -0.108282 0.835232 -0.118617
v -0.107336 0.836349 -0.165469
v -0.128668 0.705904 -0.126005
v -0.096263 0.710358 -0.096664
v -0.117287 0.695751 -0.191128
v -0.207174 0.423601 -0.172515
v -0.195260 0.443119 -0.180708
v -0.202161 0.446915 -0.138148
v -0.218353 0.428244 -0.142026
v -0.184701 0.534527 -0.175997
v -0.193176 0.494276 -0.189409
v -0.213171 0.512591 -0.190463
v -0.193863 0.632665 -0.191888
v -0.222644 0.523619 -0.141593
v -0.195418 0.630531 -0.152670
v -0.199334 0.507255 -0.131254
v -0.184506 0.534917 -0.154628
v -0.229196 0.454566 -0.182391
v -0.237602 0.458360 -0.141310
v -0.215662 0.450455 -0.136641
v -0.203429 0.460351 -0.128054
v -0.170505 0.726077 -0.190130
v -0.124167 0.693514 -0.195073
v -0.063851 0.083861 -0.105170
v -0.041117 0.331874 -0.040939
v -0.094983 0.334968 -0.058816
v -0.097664 0.086554 -0.106140
v -0.033288 0.343167 -0.125859
v -0.055082 0.083788 -0.151781
v -0.078125 -0.005028 -0.021927
v -0.051951 -0.011115 -0.062125
v -0.056620 0.038637 -0.060964
v -0.076649 0.026625 -0.035022
v -0.107542 -0.008182 -0.034054
v -0.107604 0.026604 -0.045645
v -0.122387 0.036992 -0.074986
v -0.124623 -0.011219 -0.080968
v -0.078125 -0.005028 -0.021927
v -0.107542 -0.008182 -0.034054
v -0.124623 -0.011219 -0.080968
v -0.051951 -0.011115 -0.062125
v -0.093560 -0.011325 -0.165041
v -0.055715 -0.009986 -0.159339
v -0.095236 0.072295 -0.154000
v -0.097617 0.342938 -0.112638
v -0.055715 -0.009986 -0.159339
v -0.093560 -0.011325 -0.165041
v -0.074856 0.281453 -0.011434
v -0.000479 0.295053 0.011865
v -0.000292 0.524340 -0.025924
v -0.080902 0.309430 -0.200710
v -0.144109 0.290949 -0.153080
v -0.140213 0.284312 -0.046147
v -0.071136 0.613698 -0.158594
v -0.000292 0.521823 -0.180316
v -0.000293 0.314972 -0.220251
v -0.094983 0.334968 -0.058816
v -0.041117 0.331874 -0.040939
v -0.000479 0.295053 0.011865
v -0.074856 0.281453 -0.011434
v -0.000293 0.314972 -0.220251
v -0.033288 0.343167 -0.125859
v -0.097617 0.342938 -0.112638
v -0.080902 0.309430 -0.200710
v -0.140213 0.284312 -0.046147
v -0.144109 0.290949 -0.153080
v -0.000293 0.347875 -0.113957
v 0.070533 0.597706 -0.062507
v 0.101332 0.508600 -0.060633
v 0.110320 0.512860 -0.153836
v 0.075298 0.708675 -0.016347
v 0.083365 0.845644 -0.176711
v 0.049536 0.873651 -0.150339
v 0.040888 0.852228 -0.086142
v 0.085098 0.842674 -0.097114
v -0.000290 0.899636 -0.118063
v 0.088589 0.732732 -0.193848
v 0.107698 0.835231 -0.118617
v 0.175922 0.750893 -0.149141
v 0.171997 0.784904 -0.199578
v 0.106759 0.836349 -0.165469
v 0.135849 0.720459 -0.133848
v 0.095685 0.710358 -0.096664
v 0.127860 0.756150 -0.204409
v 0.188880 0.451237 -0.124024
v 0.180385 0.443505 -0.170960
v 0.191828 0.420019 -0.160659
v 0.204961 0.426062 -0.127176
v 0.206373 0.513964 -0.186295
v 0.182672 0.499141 -0.183888
v 0.177674 0.544870 -0.171271
v 0.196998 0.629524 -0.190157
v 0.198816 0.631482 -0.150950
v 0.218446 0.529769 -0.132830
v 0.191389 0.519111 -0.120240
v 0.177768 0.548033 -0.147594
v 0.218812 0.447105 -0.173667
v 0.228943 0.454261 -0.128374
v 0.204103 0.451829 -0.122621
v 0.191638 0.466935 -0.113694
v 0.178212 0.723427 -0.199041
v 0.129580 0.701477 -0.201960
v 0.086784 0.334367 -0.052724
v 0.036335 0.331692 -0.032157
v 0.063272 0.083851 -0.099703
v 0.097085 0.086545 -0.100673
v 0.028631 0.345834 -0.128488
v 0.054497 0.083784 -0.146315
v 0.056041 0.038644 -0.055496
v 0.051373 -0.011107 -0.056659
v 0.077547 -0.005022 -0.016460
v 0.076065 0.026632 -0.029555
v 0.121808 0.036999 -0.069519
v 0.107026 0.026610 -0.040178
v 0.106957 -0.008175 -0.028586
v 0.124044 -0.011213 -0.075501
v 0.124044 -0.011213 -0.075501
v 0.106957 -0.008175 -0.028586
v 0.077547 -0.005022 -0.016460
v 0.051373 -0.011107 -0.056659
v 0.055136 -0.009978 -0.153872
v 0.092981 -0.011318 -0.159574
v 0.089197 0.343479 -0.114354
v 0.094652 0.072292 -0.148535
v 0.092981 -0.011318 -0.159574
v 0.055136 -0.009978 -0.153872
v 0.074484 0.287391 -0.010836
v 0.143475 0.291840 -0.165373
v 0.080323 0.309415 -0.198406
v 0.139719 0.287245 -0.052310
v 0.070559 0.613698 -0.158594
v 0.036335 0.331692 -0.032157
v 0.086784 0.334367 -0.052724
v 0.074484 0.287391 -0.010836
v 0.089197 0.343479 -0.114354
v 0.028631 0.345834 -0.128488
v 0.080323 0.309415 -0.198406
v 0.139719 0.287245 -0.052310
v 0.143475 0.291840 -0.165373
vt 0.172100 0.880900
vt 0.254800 0.893300
vt 0.170500 0.805200
vt 0.356700 0.987700
vt 0.356700 0.921900
vt 0.264400 0.987700
vt 0.485100 0.933800
vt 0.542400 0.878600
vt 0.515600 0.832900
vt 0.460200 0.884200
vt 0.474600 0.987700
vt 0.633900 0.862900
vt 0.633900 0.732800
vt 0.506500 0.732800
vt 0.942100 0.356900
vt 0.920600 0.424800
vt 0.990800 0.417400
vt 0.990800 0.366900
vt 0.910600 0.493300
vt 0.990800 0.481700
vt 0.934600 0.581900
vt 0.990800 0.581900
vt 0.356700 0.856400
vt 0.458100 0.852600
vt 0.486500 0.824700
vt 0.996100 0.194400
vt 0.953800 0.174100
vt 0.957300 0.261000
vt 0.995200 0.253600
vt 0.814500 0.169700
vt 0.863700 0.164200
vt 0.865800 0.130700
vt 0.814500 0.116000
vt 0.871500 0.055800
vt 0.814500 0.065500
vt 0.846800 0.290100
vt 0.814500 0.239800
vt 0.943500 0.121000
vt 0.953900 0.065900
vt 0.971100 0.036900
vt 0.949600 0.290300
vt 0.957000 0.007000
vt 0.871400 0.007000
vt 0.819400 0.434500
vt 0.819400 0.507200
vt 0.996100 0.136800
vt 0.996100 0.069700
vt 0.996100 0.007000
vt 0.892500 0.359700
vt 0.819400 0.365700
vt 0.819400 0.581900
vt 0.891800 0.581900
vt 0.814500 0.007000
vt 0.885300 0.296200
vt 0.819400 0.296200
vt 0.934600 0.296200
vt 0.990800 0.296200
vt 0.689900 0.891200
vt 0.799900 0.892800
vt 0.799900 0.812200
vt 0.689900 0.814500
vt 0.799900 0.995100
vt 0.689900 0.995100
vt 0.858900 0.591900
vt 0.895800 0.591900
vt 0.891600 0.622800
vt 0.871300 0.614200
vt 0.820500 0.617700
vt 0.840400 0.634300
vt 0.843100 0.649500
vt 0.807500 0.650600
vt 0.390600 0.700000
vt 0.443200 0.705500
vt 0.456300 0.750400
vt 0.369200 0.743100
vt 0.431600 0.846000
vt 0.386700 0.845600
vt 0.689900 0.702100
vt 0.799900 0.711300
vt 0.799900 0.615000
vt 0.689900 0.615000
vt 0.878200 0.675200
vt 0.921800 0.652200
vt 0.807500 0.774900
vt 0.807500 0.734500
vt 0.878200 0.732400
vt 0.878200 0.774900
vt 0.992900 0.591900
vt 0.992900 0.652200
vt 0.008700 0.925700
vt 0.008700 0.987700
vt 0.192900 0.987700
vt 0.008700 0.767000
vt 0.008700 0.800100
vt 0.008700 0.854600
vt 0.260500 0.787100
vt 0.356700 0.776200
vt 0.352900 0.696100
vt 0.192400 0.700200
vt 0.008700 0.700200
vt 0.867000 0.836000
vt 0.942600 0.822100
vt 0.975400 0.774700
vt 0.897300 0.774700
vt 0.975400 0.990400
vt 0.944900 0.928700
vt 0.866200 0.920300
vt 0.890800 0.990400
vt 0.818400 0.833500
vt 0.818400 0.925900
vt 0.975400 0.877800
vt 0.499300 0.988300
vt 0.548500 0.904700
vt 0.633900 0.933200
vn -0.788200 0.219800 0.574800
vn -0.833900 0.053900 0.549200
vn -0.814500 0.247100 -0.524900
vn 0.000000 0.099900 0.995000
vn -0.600900 0.022100 0.799000
vn 0.000000 -0.084700 0.996400
vn -0.393400 0.659400 0.640700
vn -0.556000 0.830400 -0.036700
vn -0.446900 0.629700 -0.635400
vn -0.518200 0.688400 0.507500
vn 0.000400 0.543200 0.839600
vn -0.000100 0.691400 -0.722500
vn 0.000000 -0.018300 -0.999800
vn -0.246500 -0.134700 -0.959700
vn -0.604700 0.477300 -0.637500
vn -0.787900 0.191600 0.585200
vn -0.668500 0.623700 0.405000
vn -0.535800 0.711400 -0.454700
vn -0.144400 -0.521600 0.840900
vn -0.927500 -0.210200 0.309000
vn 0.528200 -0.658700 -0.535900
vn 0.143900 -0.928600 -0.341900
vn 0.730500 -0.358900 -0.581000
vn 0.694300 -0.408700 0.592300
vn -0.214700 -0.828900 0.516600
vn 0.845500 -0.240000 -0.476900
vn 0.699500 -0.092600 -0.708600
vn -0.485900 0.179500 -0.855300
vn -0.662200 0.070800 -0.745900
vn -0.842200 0.232400 0.486500
vn -0.797500 0.127800 0.589600
vn 0.477500 -0.006000 0.878600
vn 0.911800 -0.258600 0.318900
vn -0.696100 -0.230200 -0.680000
vn -0.867200 -0.114000 0.484800
vn -0.216200 -0.207900 0.953900
vn 0.339800 -0.192000 0.920700
vn -0.700100 0.186200 -0.689400
vn 0.537800 -0.278000 -0.795900
vn 0.766800 0.166700 0.619800
vn 0.538000 -0.257200 0.802800
vn -0.782900 -0.128900 0.608700
vn -0.786000 0.315800 0.531400
vn 0.683700 0.025400 -0.729300
vn 0.769800 0.025700 -0.637700
vn 0.231200 0.295000 0.927100
vn 0.966800 0.085100 0.241000
vn 0.705500 0.525100 0.475900
vn 0.187600 0.620600 0.761300
vn -0.678100 0.199200 0.707400
vn -0.512000 0.586400 0.627600
vn -0.856900 0.441600 0.266000
vn -0.998000 0.050900 -0.037000
vn 0.004900 -0.994900 0.100500
vn 0.094300 -0.995100 0.030100
vn 0.004300 -0.999200 0.039600
vn -0.010400 -0.998000 0.062800
vn 0.022200 -0.999700 -0.006900
vn 0.037300 -0.999200 -0.013000
vn -0.619600 0.126700 -0.774600
vn -0.792800 0.095500 -0.602000
vn 0.726200 0.126700 -0.675700
vn -0.496400 0.115900 -0.860300
vn -0.388800 0.146800 0.909600
vn -0.017900 0.162600 0.986500
vn -0.000900 0.075400 0.997100
vn -0.430800 0.142000 -0.891200
vn -0.927900 0.137700 -0.346600
vn -0.823600 0.165800 0.542400
vn -0.792400 -0.049300 -0.608000
vn 0.001500 0.077400 -0.997000
vn 0.012700 0.189500 -0.981800
vn 0.548900 -0.671800 -0.497400
vn -0.030500 -0.858700 -0.511500
vn 0.032100 -0.773400 -0.633100
vn 0.353300 -0.542100 -0.762400
vn 0.001000 -0.937000 0.349300
vn 0.086500 -0.976900 0.195300
vn 0.552300 -0.819500 0.152700
vn 0.276200 -0.879700 0.387100
vn 0.634200 -0.647700 -0.422100
vn 0.655800 -0.731500 0.186400
vn 0.030200 -0.999500 -0.007400
vn 0.833900 0.053900 0.549200
vn 0.789000 0.220300 0.573500
vn 0.813300 0.247400 -0.526500
vn 0.600900 0.022100 0.799000
vn 0.446900 0.629700 -0.635400
vn 0.556000 0.830300 -0.036700
vn 0.393400 0.659400 0.640600
vn 0.518100 0.688400 0.507600
vn 0.000000 0.970500 0.240900
vn 0.394600 -0.325200 -0.859300
vn 0.654500 0.628100 0.420800
vn 0.813200 0.196300 0.547800
vn 0.648000 0.485200 -0.587100
vn 0.466600 0.768100 -0.438500
vn -0.045300 -0.548100 0.835100
vn 0.957900 -0.197500 0.208300
vn -0.259100 -0.041300 -0.965000
vn -0.736100 -0.296400 0.608500
vn -0.779500 -0.314300 -0.541700
vn -0.266300 -0.924600 -0.272300
vn 0.101000 -0.809700 0.578100
vn 0.494800 0.095600 -0.863700
vn -0.718900 -0.056800 -0.692800
vn -0.869800 -0.190300 -0.455200
vn 0.681600 -0.018800 -0.731500
vn 0.769500 0.137000 0.623700
vn 0.867500 0.199000 0.455900
vn -0.456700 0.099800 0.884000
vn -0.920400 -0.144600 0.363200
vn 0.651000 -0.361300 -0.667600
vn 0.855700 -0.179800 0.485100
vn 0.172000 -0.159500 0.972100
vn -0.348000 -0.093100 0.932800
vn 0.693600 0.080200 -0.715800
vn -0.723900 -0.174500 -0.667400
vn 0.798400 -0.107800 0.592400
vn -0.529900 -0.276100 0.801900
vn -0.766600 0.162300 0.621200
vn 0.786400 0.328600 0.523000
vn -0.669900 -0.003700 -0.742400
vn -0.773600 0.006400 -0.633600
vn -0.705500 0.525200 0.475800
vn -0.966800 0.085100 0.241000
vn -0.231200 0.295000 0.927100
vn -0.187700 0.620600 0.761300
vn 0.856800 0.441600 0.266000
vn 0.512100 0.586300 0.627600
vn 0.678100 0.199100 0.707500
vn 0.998000 0.050900 -0.036900
vn -0.004300 -0.999200 0.039600
vn -0.094300 -0.995100 0.030100
vn -0.004900 -0.994900 0.100500
vn 0.010400 -0.998000 0.062800
vn -0.037300 -0.999200 -0.013000
vn -0.022200 -0.999700 -0.006900
vn 0.784600 0.103200 -0.611400
vn 0.623800 0.124600 -0.771600
vn 0.496400 0.115900 -0.860300
vn -0.726200 0.126600 -0.675700
vn 0.414500 0.143700 0.898600
vn 0.894300 0.156000 -0.419300
vn 0.372300 0.151200 -0.915700
vn 0.856500 0.155700 0.492100
vn 0.792400 -0.049300 -0.608000
vn 0.033000 -0.810100 -0.585300
vn -0.525000 -0.676900 -0.515900
vn -0.350200 -0.570600 -0.742800
vn -0.503100 -0.850500 0.153600
vn -0.054400 -0.973900 0.220300
vn -0.267600 -0.882800 0.386000
vn -0.643700 -0.686800 -0.337500
vn -0.578400 -0.793800 0.188100
usemtl Material.004
s 1
f 1/1/1 2/2/2 3/3/3
f 4/4/4 5/5/5 2/2/2
f 2/2/2 6/6/6 4/4/4
f 7/7/7 8/8/8 9/9/9
f 9/9/9 10/10/10 7/7/7
f 11/11/11 7/7/7 4/4/4
f 9/9/9 12/12/12 13/13/13
f 13/13/13 14/14/14 9/9/9
f 10/10/10 5/5/5 4/4/4
f 4/4/4 7/7/7 10/10/10
f 8/8/8 12/12/12 9/9/9
f 15/15/15 16/16/16 17/17/17
f 17/17/17 18/18/18 15/15/15
f 17/17/17 16/16/16 19/19/19
f 19/19/19 20/20/20 17/17/17
f 20/20/20 19/19/19 21/21/21
f 21/21/21 14/22/14 20/20/20
f 20/23/20 10/10/10 17/24/17
f 9/9/9 18/25/18 17/24/17
f 17/24/17 10/10/10 9/9/9
f 14/14/14 18/25/18 9/9/9
f 22/26/22 23/27/23 24/28/24
f 24/28/24 25/29/25 22/26/22
f 26/30/26 27/31/27 28/32/28
f 28/32/28 29/33/29 26/30/26
f 28/32/28 30/34/30 31/35/31
f 31/35/31 29/33/29 28/32/28
f 32/36/32 27/31/27 26/30/26
f 26/30/26 33/37/33 32/36/32
f 34/38/34 28/32/28 27/31/27
f 27/31/27 23/27/23 34/38/34
f 28/32/28 34/38/34 35/39/35
f 35/39/35 30/34/30 28/32/28
f 36/40/36 30/34/30 35/39/35
f 32/36/32 37/41/37 24/28/24
f 37/42/37 32/43/32 30/34/30
f 30/34/30 36/40/36 37/42/37
f 16/16/16 31/44/31 33/45/33
f 33/45/33 19/19/19 16/16/16
f 22/46/22 34/38/34 23/27/23
f 34/38/34 22/46/22 25/47/25
f 25/47/25 35/39/35 34/38/34
f 24/48/24 36/40/36 25/47/25
f 24/28/24 23/27/23 27/31/27
f 27/31/27 32/36/32 24/28/24
f 31/44/31 16/16/16 38/49/38
f 38/49/38 29/50/29 31/44/31
f 33/45/33 26/51/26 39/52/39
f 39/52/39 19/19/19 33/45/33
f 33/53/33 31/35/31 32/43/32
f 30/34/30 32/43/32 31/35/31
f 24/48/24 37/42/37 36/40/36
f 39/54/39 26/55/26 29/50/29
f 29/50/29 38/49/38 39/54/39
f 21/56/21 15/15/15 18/18/18
f 18/18/18 14/57/14 21/56/21
f 36/40/36 35/39/35 25/47/25
f 16/16/16 15/15/15 38/49/38
f 21/21/21 19/19/19 39/52/39
f 15/15/15 21/56/21 39/54/39
f 39/54/39 38/49/38 15/15/15
f 40/58/40 41/59/41 42/60/42
f 42/60/42 43/61/43 40/58/40
f 44/62/44 41/59/41 40/58/40
f 40/58/40 45/63/45 44/62/44
f 46/64/46 47/65/47 48/66/48
f 48/66/48 49/67/49 46/64/46
f 50/68/50 51/69/51 52/70/52
f 52/70/52 53/71/53 50/68/50
f 54/72/54 55/73/55 56/74/56
f 56/74/56 57/75/57 54/72/54
f 51/69/51 50/68/50 46/64/46
f 46/64/46 49/67/49 51/69/51
f 48/66/48 52/70/52 51/69/51
f 51/69/51 49/67/49 48/66/48
f 58/76/58 59/77/59 57/75/57
f 57/75/57 56/74/56 58/76/58
f 60/78/60 61/79/61 44/80/44
f 44/80/44 45/81/45 60/78/60
f 43/61/43 42/60/42 61/79/61
f 61/79/61 60/78/60 43/61/43
f 43/82/43 48/66/48 40/83/40
f 62/84/62 63/85/63 60/86/60
f 60/86/60 45/87/45 62/84/62
f 63/85/63 53/71/53 52/70/52
f 40/83/40 48/66/48 62/88/62
f 62/88/62 45/89/45 40/83/40
f 43/82/43 60/86/60 52/70/52
f 52/70/52 48/66/48 43/82/43
f 47/65/47 62/88/62 48/66/48
f 60/86/60 63/85/63 52/70/52
f 64/90/64 65/91/65 66/92/66
f 66/92/66 1/1/1 64/90/64
f 67/93/67 68/94/68 3/3/3
f 3/3/3 68/94/68 69/95/69
f 69/95/69 1/1/1 3/3/3
f 20/23/20 5/5/5 10/10/10
f 20/23/20 2/2/2 5/5/5
f 70/96/70 3/3/3 2/2/2
f 1/1/1 66/92/66 6/6/6
f 2/2/2 1/1/1 6/6/6
f 20/23/20 14/97/14 70/96/70
f 70/96/70 2/2/2 20/23/20
f 14/97/14 13/98/13 70/96/70
f 71/99/71 70/96/70 13/98/13
f 64/90/64 1/1/1 69/95/69
f 70/96/70 71/99/71 3/3/3
f 71/99/71 72/100/72 67/93/67
f 67/93/67 3/3/3 71/99/71
f 73/101/73 74/102/74 75/103/75
f 75/103/75 76/104/76 73/101/73
f 77/105/77 78/106/78 79/107/79
f 79/107/79 80/108/80 77/105/77
f 79/107/79 73/101/73 81/109/81
f 81/109/81 82/110/82 79/107/79
f 73/101/73 76/104/76 81/109/81
f 79/107/79 82/110/82 80/108/80
f 83/111/83 75/103/75 74/102/74
f 83/111/83 74/102/74 78/106/78
f 77/105/77 83/111/83 78/106/78
f 84/2/84 85/1/85 86/3/86
f 84/2/84 87/5/87 4/4/4
f 4/4/4 6/6/6 84/2/84
f 88/9/88 89/8/89 90/7/90
f 90/7/90 91/10/91 88/9/88
f 90/7/90 11/11/11 4/4/4
f 92/112/92 11/11/11 90/7/90
f 13/13/13 12/12/12 88/9/88
f 88/9/88 93/14/93 13/13/13
f 4/4/4 87/5/87 91/10/91
f 91/10/91 90/7/90 4/4/4
f 12/12/12 89/8/89 88/9/88
f 94/17/94 95/16/95 96/15/96
f 96/15/96 97/18/97 94/17/94
f 98/19/98 95/16/95 94/17/94
f 94/17/94 99/20/99 98/19/98
f 100/21/100 98/19/98 99/20/99
f 99/20/99 93/22/93 100/21/100
f 91/10/91 99/23/99 94/24/94
f 94/24/94 97/25/97 88/9/88
f 88/9/88 91/10/91 94/24/94
f 97/25/97 93/14/93 88/9/88
f 101/28/101 102/27/102 103/26/103
f 103/26/103 104/29/104 101/28/101
f 105/32/105 106/31/106 107/30/107
f 107/30/107 108/33/108 105/32/105
f 109/35/109 110/34/110 105/32/105
f 105/32/105 108/33/108 109/35/109
f 107/30/107 106/31/106 111/36/111
f 111/36/111 112/37/112 107/30/107
f 106/31/106 105/32/105 113/38/113
f 113/38/113 102/27/102 106/31/106
f 114/39/114 113/38/113 105/32/105
f 105/32/105 110/34/110 114/39/114
f 110/34/110 115/40/115 114/39/114
f 116/41/116 111/36/111 101/28/101
f 110/34/110 111/43/111 116/42/116
f 116/42/116 115/40/115 110/34/110
f 112/45/112 109/44/109 95/16/95
f 95/16/95 98/19/98 112/45/112
f 113/38/113 103/46/103 102/27/102
f 104/47/104 103/46/103 113/38/113
f 113/38/113 114/39/114 104/47/104
f 115/40/115 101/48/101 104/47/104
f 106/31/106 102/27/102 101/28/101
f 101/28/101 111/36/111 106/31/106
f 117/49/117 95/16/95 109/44/109
f 109/44/109 108/50/108 117/49/117
f 118/52/118 107/51/107 112/45/112
f 112/45/112 98/19/98 118/52/118
f 109/35/109 112/53/112 111/43/111
f 111/43/111 110/34/110 109/35/109
f 116/42/116 101/48/101 115/40/115
f 108/50/108 107/55/107 118/54/118
f 118/54/118 117/49/117 108/50/108
f 97/18/97 96/15/96 100/56/100
f 100/56/100 93/57/93 97/18/97
f 114/39/114 115/40/115 104/47/104
f 96/15/96 95/16/95 117/49/117
f 98/19/98 100/21/100 118/52/118
f 118/54/118 100/56/100 96/15/96
f 96/15/96 117/49/117 118/54/118
f 119/60/119 120/59/120 121/58/121
f 121/58/121 122/61/122 119/60/119
f 121/58/121 120/59/120 123/62/123
f 123/62/123 124/63/124 121/58/121
f 125/66/125 126/65/126 127/64/127
f 127/64/127 128/67/128 125/66/125
f 129/70/129 130/69/130 131/68/131
f 131/68/131 132/71/132 129/70/129
f 133/74/133 134/73/134 135/72/135
f 135/72/135 136/75/136 133/74/133
f 127/64/127 131/68/131 130/69/130
f 130/69/130 128/67/128 127/64/127
f 130/69/130 129/70/129 125/66/125
f 125/66/125 128/67/128 130/69/130
f 136/75/136 137/77/137 138/76/138
f 138/76/138 133/74/133 136/75/136
f 123/80/123 139/79/139 140/78/140
f 140/78/140 124/81/124 123/80/123
f 139/79/139 119/60/119 122/61/122
f 122/61/122 140/78/140 139/79/139
f 125/66/125 122/82/122 121/83/121
f 140/86/140 141/85/141 142/84/142
f 142/84/142 124/87/124 140/86/140
f 132/71/132 141/85/141 129/70/129
f 125/66/125 121/83/121 142/88/142
f 124/89/124 142/88/142 121/83/121
f 140/86/140 122/82/122 129/70/129
f 125/66/125 129/70/129 122/82/122
f 142/88/142 126/65/126 125/66/125
f 141/85/141 140/86/140 129/70/129
f 92/113/92 90/7/90 89/8/89
f 89/8/89 12/12/12 92/114/92
f 7/7/7 92/113/92 8/8/8
f 92/114/92 12/12/12 8/8/8
f 92/113/92 7/7/7 11/11/11
f 66/92/66 65/91/65 143/90/143
f 143/90/143 85/1/85 66/92/66
f 144/94/144 145/93/145 86/3/86
f 146/95/146 144/94/144 86/3/86
f 86/3/86 85/1/85 146/95/146
f 87/5/87 99/23/99 91/10/91
f 84/2/84 99/23/99 87/5/87
f 86/3/86 147/96/147 84/2/84
f 6/6/6 66/92/66 85/1/85
f 85/1/85 84/2/84 6/6/6
f 147/96/147 93/97/93 99/23/99
f 99/23/99 84/2/84 147/96/147
f 13/98/13 93/97/93 147/96/147
f 147/96/147 71/99/71 13/98/13
f 143/90/143 146/95/146 85/1/85
f 71/99/71 147/96/147 86/3/86
f 145/93/145 72/100/72 71/99/71
f 71/99/71 86/3/86 145/93/145
f 75/103/75 148/102/148 149/101/149
f 149/101/149 150/104/150 75/103/75
f 151/107/151 152/106/152 77/105/77
f 77/105/77 153/108/153 151/107/151
f 154/109/154 149/101/149 151/107/151
f 151/107/151 155/110/155 154/109/154
f 150/104/150 149/101/149 154/109/154
f 155/110/155 151/107/151 153/108/153
f 75/103/75 83/111/83 148/102/148
f 148/102/148 83/111/83 152/106/152
f 83/111/83 77/105/77 152/106/152
