# Blender v2.72 (sub 0) OBJ File: ''
# www.blender.org
mtllib head_male.mtl
o female_anim_milkshape.ms3d.mo_female_anim_milkshape.ms3d.m.000_
v -0.100838 1.065225 -0.038309
v -0.128998 1.084047 -0.129595
v -0.089137 0.996392 -0.067325
v -0.079863 1.139871 -0.026832
v -0.104755 1.182944 -0.124252
v 0.000234 1.154395 -0.007834
v 0.000234 1.217048 -0.121788
v -0.097435 1.090509 -0.213527
v -0.068596 0.983238 -0.211219
v -0.106595 0.949648 -0.149042
v -0.068399 1.170489 -0.192855
v 0.000234 1.189513 -0.203729
v 0.000234 1.056130 -0.004051
v -0.063536 1.034368 -0.029669
v -0.024436 0.987820 -0.035931
v 0.000234 0.994889 -0.029088
v 0.000234 0.970149 -0.224060
v 0.000234 0.908221 -0.133605
v 0.000234 1.094768 -0.240674
v 0.000234 0.949973 -0.021535
v -0.085371 0.949851 -0.062831
v -0.061180 0.950616 -0.053241
v 0.000234 0.899272 -0.034522
v -0.053083 0.919348 -0.056345
v -0.071112 0.909537 -0.075711
v 0.000234 0.881979 -0.057431
v 0.129470 1.084047 -0.129595
v 0.101309 1.065224 -0.038310
v 0.089608 0.996392 -0.067325
v 0.080334 1.139870 -0.026832
v 0.105226 1.182944 -0.124252
v 0.069067 0.983238 -0.211220
v 0.097906 1.090508 -0.213528
v 0.107066 0.949648 -0.149042
v 0.068870 1.170489 -0.192855
v 0.024907 0.987820 -0.035931
v 0.064007 1.034368 -0.029669
v 0.085842 0.949851 -0.062831
v 0.061651 0.950616 -0.053241
v 0.053553 0.919348 -0.056345
v 0.071582 0.909537 -0.075711
vt 0.292400 0.517000
vt 0.436400 0.460900
vt 0.292700 0.330500
vt 0.213300 0.598300
vt 0.414800 0.573700
vt 0.006500 0.685600
vt 0.419200 0.685600
vt 0.585800 0.456700
vt 0.624100 0.275600
vt 0.469900 0.203800
vt 0.546500 0.586500
vt 0.607000 0.685600
vt 0.006500 0.515000
vt 0.182800 0.445400
vt 0.080200 0.326000
vt 0.006500 0.354100
vt 0.806500 0.237100
vt 0.806500 0.008700
vt 0.806500 0.492200
vt 0.006500 0.216900
vt 0.274100 0.221500
vt 0.204700 0.227000
vt 0.006500 0.087400
vt 0.201200 0.145000
vt 0.297900 0.102000
vt 0.006500 0.008700
vt 0.537100 0.008700
vt 0.286200 0.008700
vn -0.745400 -0.097900 0.659400
vn -0.998000 0.040400 -0.048200
vn -0.836100 -0.200900 0.510400
vn -0.550300 0.394900 0.735600
vn -0.735800 0.677200 -0.003200
vn 0.000000 0.518500 0.855100
vn 0.000000 0.996300 0.085200
vn -0.694800 0.100200 -0.712200
vn -0.486000 -0.398900 -0.777600
vn -0.793500 -0.535600 -0.288800
vn -0.500200 0.596400 -0.627800
vn 0.000000 0.731700 -0.681600
vn 0.000000 -0.139300 0.990200
vn -0.389000 -0.270300 0.880600
vn -0.281800 -0.145800 0.948300
vn 0.000000 -0.165000 0.986300
vn 0.000000 -0.525700 -0.850600
vn 0.000000 -0.897400 -0.441100
vn 0.000000 0.120800 -0.992700
vn 0.000000 -0.075100 0.997200
vn -0.742800 -0.177600 0.645500
vn -0.413800 -0.141700 0.899300
vn 0.000000 -0.546300 0.837500
vn -0.474700 -0.364400 0.801100
vn -0.607700 -0.766000 0.209600
vn 0.000000 -0.979600 0.200900
vn 0.998000 0.040400 -0.048200
vn 0.745400 -0.097900 0.659400
vn 0.836100 -0.200900 0.510400
vn 0.550300 0.394900 0.735600
vn 0.735800 0.677200 -0.003200
vn 0.486000 -0.398900 -0.777600
vn 0.694800 0.100200 -0.712200
vn 0.793500 -0.535600 -0.288800
vn 0.500200 0.596400 -0.627800
vn 0.281800 -0.145800 0.948300
vn 0.389000 -0.270300 0.880700
vn 0.742800 -0.177600 0.645500
vn 0.413800 -0.141700 0.899300
vn 0.474700 -0.364400 0.801100
vn 0.607700 -0.766000 0.209600
usemtl Material.003
s 1
f 1/1/1 2/2/2 3/3/3
f 2/2/2 1/1/1 4/4/4
f 4/4/4 5/5/5 2/2/2
f 5/5/5 4/4/4 6/6/6
f 6/6/6 7/7/7 5/5/5
f 2/2/2 8/8/8 9/9/9
f 9/9/9 10/10/10 2/2/2
f 11/11/11 8/8/8 2/2/2
f 2/2/2 5/5/5 11/11/11
f 11/11/11 5/5/5 7/7/7
f 7/7/7 12/12/12 11/11/11
f 13/13/13 14/14/14 15/15/15
f 15/15/15 16/16/16 13/13/13
f 9/9/9 17/17/17 18/18/18
f 1/1/1 13/13/13 6/6/6
f 4/4/4 1/1/1 6/6/6
f 17/17/17 9/9/9 8/8/8
f 8/8/8 19/19/19 17/17/17
f 8/8/8 11/11/11 12/12/12
f 12/12/12 19/19/19 8/8/8
f 16/16/16 15/15/15 20/20/20
f 10/10/10 21/21/21 3/3/3
f 20/20/20 22/22/22 23/23/23
f 1/1/1 14/14/14 13/13/13
f 1/1/1 3/3/3 14/14/14
f 21/21/21 22/22/22 3/3/3
f 20/20/20 15/15/15 22/22/22
f 22/22/22 24/24/24 23/23/23
f 15/15/15 14/14/14 22/22/22
f 3/3/3 22/22/22 14/14/14
f 3/3/3 2/2/2 10/10/10
f 24/24/24 22/22/22 21/21/21
f 21/21/21 25/25/25 24/24/24
f 21/21/21 10/10/10 25/25/25
f 25/25/25 26/26/26 23/23/23
f 23/23/23 24/24/24 25/25/25
f 27/2/27 28/1/28 29/3/29
f 30/4/30 28/1/28 27/2/27
f 27/2/27 31/5/31 30/4/30
f 6/6/6 30/4/30 31/5/31
f 31/5/31 7/7/7 6/6/6
f 32/9/32 33/8/33 27/2/27
f 27/2/27 34/10/34 32/9/32
f 27/2/27 33/8/33 35/11/35
f 35/11/35 31/5/31 27/2/27
f 7/7/7 31/5/31 35/11/35
f 35/11/35 12/12/12 7/7/7
f 36/15/36 37/14/37 13/13/13
f 13/13/13 16/16/16 36/15/36
f 18/18/18 17/17/17 32/9/32
f 6/6/6 13/13/13 28/1/28
f 28/1/28 30/4/30 6/6/6
f 33/8/33 32/9/32 17/17/17
f 17/17/17 19/19/19 33/8/33
f 12/12/12 35/11/35 33/8/33
f 33/8/33 19/19/19 12/12/12
f 36/15/36 16/16/16 20/20/20
f 38/21/38 34/10/34 29/3/29
f 39/22/39 20/20/20 23/23/23
f 37/14/37 28/1/28 13/13/13
f 29/3/29 28/1/28 37/14/37
f 39/22/39 38/21/38 29/3/29
f 36/15/36 20/20/20 39/22/39
f 40/24/40 39/22/39 23/23/23
f 37/14/37 36/15/36 39/22/39
f 39/22/39 29/3/29 37/14/37
f 27/2/27 29/3/29 34/10/34
f 39/22/39 40/24/40 38/21/38
f 41/25/41 38/21/38 40/24/40
f 34/10/34 38/21/38 41/25/41
f 23/23/23 26/26/26 41/25/41
f 41/25/41 40/24/40 23/23/23
f 25/25/25 10/10/10 18/27/18
f 25/25/25 18/28/18 26/26/26
f 18/27/18 10/10/10 9/9/9
f 18/27/18 34/10/34 41/25/41
f 18/28/18 41/25/41 26/26/26
f 34/10/34 18/27/18 32/9/32
